<?xml version="1.0" encoding="UTF-8" standalone="no"?>
<!-- Created with Inkscape (http://www.inkscape.org/) -->

<svg
   xmlns:dc="http://purl.org/dc/elements/1.1/"
   xmlns:cc="http://creativecommons.org/ns#"
   xmlns:rdf="http://www.w3.org/1999/02/22-rdf-syntax-ns#"
   xmlns:svg="http://www.w3.org/2000/svg"
   xmlns="http://www.w3.org/2000/svg"
   xmlns:sodipodi="http://sodipodi.sourceforge.net/DTD/sodipodi-0.dtd"
   xmlns:inkscape="http://www.inkscape.org/namespaces/inkscape"
   id="svg2985"
   version="1.1"
   inkscape:version="0.48.5 r10040"
   width="400"
   height="400"
   sodipodi:docname="templecarpoolLogo.png">
  <metadata
     id="metadata2991">
    <rdf:RDF>
      <cc:Work
         rdf:about="">
        <dc:format>image/svg+xml</dc:format>
        <dc:type
           rdf:resource="http://purl.org/dc/dcmitype/StillImage" />
        <dc:title></dc:title>
      </cc:Work>
    </rdf:RDF>
  </metadata>
  <defs
     id="defs2989" />
  <sodipodi:namedview
     pagecolor="#ffffff"
     bordercolor="#666666"
     borderopacity="1"
     objecttolerance="10"
     gridtolerance="10"
     guidetolerance="10"
     inkscape:pageopacity="0"
     inkscape:pageshadow="2"
     inkscape:window-width="1367"
     inkscape:window-height="912"
     id="namedview2987"
     showgrid="false"
     inkscape:snap-global="true"
     inkscape:snap-to-guides="false"
     inkscape:snap-grids="false"
     inkscape:object-paths="true"
     inkscape:zoom="0.87036767"
     inkscape:cx="190.0608"
     inkscape:cy="243.72066"
     inkscape:window-x="90"
     inkscape:window-y="7"
     inkscape:window-maximized="0"
     inkscape:current-layer="svg2985" />
  <path
     style="fill:#000000;fill-opacity:1;stroke:#000000;stroke-width:0.40378471999999999;stroke-linecap:butt;stroke-linejoin:miter;stroke-miterlimit:4;stroke-opacity:1;stroke-dasharray:none"
     d="m 342.37558,275.01705 c -10.35637,7.33575 -13.09968,12.92778 -13.23952,23.12747 -0.15074,11 11.18869,19.72076 19.54978,20.71273 11.06965,1.31323 25.18395,-7.10276 25.45946,-21.57585 0.27615,-14.51084 -10.91947,-20.28117 -10.91947,-20.28117 0,0 2.7266,0.36662 3.02949,-2.58018 0.48751,-4.74126 -2.39476,-8.15291 -1.52668,-11.96279 2.57421,-11.29737 4.54241,-18.23279 4.33007,-22.11203 -0.0792,-1.44933 -0.65476,-3.04442 -0.65476,-3.04442 0,0 2.78337,-0.29986 3.67533,-0.69163 1.45879,-0.64062 0.12268,-5.66743 0.20839,-10.09627 0.0418,-2.15715 -0.6059,-16.7892 -0.6059,-16.7892 0,0 1.07933,0.0734 2.07779,-0.12263 0.71405,-0.14014 1.6203,-9.95157 0.25415,-15.0203 -2.61998,-9.7207 -2.80636,-17.98615 -2.80636,-17.98615 0,0 2.80075,0.51744 3.70623,6.58641 0.53692,3.59768 5.14436,7.89584 6.43889,11.34796 1.29452,3.45212 0.69655,9.86123 7.93871,10.19089 6.21807,0.28309 5.88679,-1.7988 5.37749,-5.10734 -0.76994,-5.0017 -4.72714,-2.46635 -6.63516,-6.51262 -1.8583,-3.94066 -2.0231,-12.89367 -4.18066,-17.20882 -2.15755,-4.31515 -5.35263,-7.25007 -5.35263,-7.25007 0,0 1.04423,-0.86239 0,-2.84919 -1.03818,-1.97547 -2.20926,-4.35801 -2.20926,-4.35801 0,0 2.76939,-5.90372 -1.54571,-14.96555 -4.31521,-9.06181 -15.38959,-6.0623 -17.03751,-10.05043 -1.60337,-3.88066 0.20827,-2.14931 0.90592,-3.98423 0.99616,-2.62001 2.33194,-12.59072 -0.68862,-17.76891 -3.02058,-5.17818 -7.68677,-7.95815 -13.30323,-6.69295 -4.79547,1.08027 -7.281,10.40517 -7.281,10.40517 0,0 -6.27165,-4.75962 -8.236,-8.06081 -0.67642,-1.1368 -0.21884,-2.76354 -1.0867,-3.81684 -1.23963,-1.50437 -2.60887,-2.29852 -3.5763,-2.96826 -1.61371,-1.11704 -4.24117,0.63419 -4.24117,0.63419 L 308.60212,93.050517 c 0,0 -3.47827,-3.578512 -4.11255,-10.461077 -0.44263,-4.80413 -5.89218,-8.135887 -12.03224,-1.497213 -4.49532,4.860313 -1.4973,11.116939 1.09187,12.4115 2.58906,1.294538 6.97821,-1.447113 12.28507,1.828514 4.28221,2.643194 11.97997,10.761699 11.97997,10.761699 0,0 -7.56123,13.73739 -7.75652,21.90491 -0.18891,7.90307 1.08329,11.42771 2.29806,12.33955 2.20981,1.65869 7.71547,6.51558 7.71547,6.51558 0,0 -0.68863,3.40035 2.33205,6.85247 3.02058,3.45211 5.17516,4.37585 5.17516,4.37585 0,0 -0.59996,5.42938 -0.16845,11.03908 0.43151,5.6097 2.67489,9.48737 2.67489,9.48737 0,0 -4.22764,16.84927 -1.90945,19.29559 0.82913,0.87495 1.39817,0.99159 1.39817,0.99159 0,0 -2.16361,11.65093 -1.30058,17.69214 0.86302,6.04122 3.02068,10.35637 3.02068,10.35637 0,0 0.73441,19.24974 -0.12862,23.13338 -0.86302,3.88364 -1.5576,5.09248 -1.5576,5.09248 0,0 7.31281,13.31677 10.79086,14.53998 1.60941,0.56603 2.54625,0.38569 2.54625,0.38569 z"
     id="path3776"
     inkscape:connector-curvature="0" />
  <path
     style="fill:#ffffff;fill-opacity:1;stroke:#000000;stroke-width:0.40378471999999999;stroke-linecap:butt;stroke-linejoin:miter;stroke-miterlimit:4;stroke-opacity:1;stroke-dasharray:none"
     d="m 340.0732,120.90341 c 0,0 -5.87106,-5.69959 -9.21367,-7.49945 -3.15909,-1.70107 -6.4709,-0.42854 -6.85664,-0.0857 -0.38563,0.34285 -1.41413,2.39983 -1.37133,5.39961 0.0429,2.99977 0.94279,6.81377 0.94279,8.09939 0,1.28563 -0.17142,2.78551 0.0429,2.95691 0.59995,0.68566 2.27121,0.89995 3.77115,1.79988 1.16724,0.70036 3.04258,2.05699 3.64253,2.18554 0.59996,0.12856 1.67136,-0.0428 1.67136,-0.0428 l 0.51425,0.38569 c 0,0 2.31412,-0.59996 3.214,-0.34285 0.89998,0.25713 1.41423,0.94279 1.41423,0.94279 l 0.51425,-0.0857 c 0,0 0.55705,0.72852 1.32842,0.89992 0.77137,0.17143 1.28562,0.0857 1.84277,0.38569 0.55705,0.29998 1.11421,0.68565 1.58555,0.68565 0.47145,0 0.9857,-0.0428 0.9857,-0.0428 0,0 0,0.21425 0.42842,0.25713 0.42865,0.0428 0.72858,-0.5571 1.02861,-0.64281 0.29993,-0.0857 1.88558,-0.29998 1.84266,-1.58562 -0.0429,-1.2856 -0.38562,-2.27124 -1.15699,-2.82835 -0.77149,-0.5571 -1.37134,-0.42854 -2.27133,-1.1142 -0.89987,-0.68567 -1.06688,-2.3208 -1.67124,-3.81401 -0.72858,-1.79986 -1.71417,-2.14268 -1.97128,-3.55688 -0.25712,-1.41416 -0.25712,-2.35694 -0.25712,-2.35694 z"
     id="path3866"
     inkscape:connector-curvature="0" />
  <text
     xml:space="preserve"
     style="font-size:40px;font-style:normal;font-weight:normal;line-height:125%;letter-spacing:0px;word-spacing:0px;fill:#000000;fill-opacity:1;stroke:none;font-family:Sans"
     x="5.5160103"
     y="290.97589"
     id="text3860"
     sodipodi:linespacing="125%"><tspan
       sodipodi:role="line"
       id="tspan3862"
       x="5.5160103"
       y="290.97589"
       style="font-size:100px;font-style:normal;font-variant:normal;font-weight:normal;font-stretch:normal;font-family:Majestic;-inkscape-font-specification:Majestic">Carpoo</tspan></text>
</svg>
